<?xml version="1.0" encoding="utf-8"?>
<!-- Generator: Adobe Illustrator 16.0.0, SVG Export Plug-In . SVG Version: 6.00 Build 0)  -->
<!DOCTYPE svg PUBLIC "-//W3C//DTD SVG 1.1 Basic//EN" "http://www.w3.org/Graphics/SVG/1.1/DTD/svg11-basic.dtd">
<svg version="1.1" baseProfile="basic" id="layer" xmlns="http://www.w3.org/2000/svg" xmlns:xlink="http://www.w3.org/1999/xlink"
	 x="0px" y="0px"  viewBox="0 0 1000 1000" xml:space="preserve">
<g>
	<path fill="#9D9FA1" d="M89.708,449.173c-14.924,13.193-31.793,23.143-49.962,30.929l64.67,46.285l-3.677,1.729l-26.819-17.734
		c-8.651-5.84-30.28-1.73-34.606,5.623l49.746,34.822c13.842-13.193,30.496-23.791,50.178-31.794l-65.318-45.42l3.46-2.811
		l21.195,15.138c10.599,7.57,19.034,9.518,41.744-1.729L89.708,449.173"/>
	<polyline fill="#2D3394" points="190.929,474.478 219.262,474.478 227.697,504.109 227.697,504.109 236.133,474.478 
		264.25,474.478 264.25,525.305 246.082,525.305 246.082,488.969 245.866,488.969 235.267,525.305 220.128,525.305 209.313,488.969 
		209.313,488.969 209.313,525.305 190.929,525.305 190.929,474.478 	"/>
	<path fill="#2D3394" d="M301.018,489.834L301.018,489.834l-6.056,17.304h12.112L301.018,489.834 M288.474,474.478h24.656
		l21.628,50.827h-21.412l-2.163-5.839h-20.98l-2.163,5.839h-21.413L288.474,474.478z"/>
	<path fill="#2D3394" d="M403.969,474.478h20.115v30.713c0,6.489,3.677,8.652,10.382,8.652c6.489,0,10.382-2.163,10.382-8.652
		v-30.713h20.114v31.579c0,16.221-9.733,20.979-30.497,20.979c-20.546,0-30.497-4.975-30.497-20.979V474.478"/>
	<polyline fill="#2D3394" points="487.457,487.239 468.855,487.239 468.855,474.478 526.17,474.478 526.17,487.239 507.57,487.239 
		507.57,525.305 487.457,525.305 487.457,487.239 	"/>
	<rect x="530.281" y="474.478" fill="#2D3394" width="20.113" height="50.827"/>
	<path fill="#2D3394" d="M357.036,487.239h14.059c3.244,0,5.84,0.865,5.84,4.758c0,3.245-1.73,4.758-5.624,4.758h-14.275V487.239
		 M402.888,525.305l-17.086-15.789c14.058-2.162,12.328-16.005,12.328-20.763c0-5.623-3.028-10.381-6.921-12.328
		c-2.812-1.297-6.272-1.947-12.112-1.947h-42.176v50.827h20.114v-15.572h3.46l16.871,15.572H402.888z"/>
	<path fill="#2D3394" d="M615.713,503.677c-9.732-1.514-13.842-7.138-13.842-14.275c0-13.193,12.977-16.653,29.414-16.653
		c22.711,0,32.01,5.84,32.66,16.653h-23.359c0-2.162-1.299-3.244-3.027-4.109c-1.732-0.865-4.109-1.081-6.273-1.081
		c-6.055,0-8.002,1.514-8.002,3.677c0,1.514,0.648,2.38,2.596,2.597l24.008,3.46c10.166,1.514,16.436,6.271,16.436,14.707
		c0,12.328-10.164,18.168-32.658,18.168c-15.355,0-32.225-2.163-32.441-17.086h24.223c0,1.729,0.648,2.811,2.162,3.676
		c1.516,0.649,3.678,1.082,6.922,1.082c6.273,0,8.002-1.73,8.002-4.109c0-1.515-0.863-3.028-3.676-3.461L615.713,503.677"/>
	<path fill="#2D3394" d="M671.73,474.478h20.115v30.713c0,6.489,3.678,8.652,10.381,8.652c6.488,0,10.383-2.163,10.383-8.652
		v-30.713h20.113v31.579c0,16.221-9.732,20.979-30.496,20.979c-20.547,0-30.496-4.975-30.496-20.979V474.478"/>
	<polyline fill="#2D3394" points="737.914,514.491 768.41,487.239 740.076,487.239 740.076,474.478 795.445,474.478 
		795.445,485.508 765.814,512.544 794.797,512.544 794.797,525.305 737.914,525.305 737.914,514.491 	"/>
	<path fill="#2D3394" d="M800.854,474.478h20.113v30.713c0,6.489,3.678,8.652,10.381,8.652c6.49,0,10.383-2.163,10.383-8.652
		v-30.713h20.115v31.579c0,16.221-9.732,20.979-30.498,20.979c-20.545,0-30.496-4.975-30.496-20.979v-31.579"/>
	<rect x="940.572" y="474.478" fill="#2D3394" width="20.115" height="50.827"/>
	<polyline fill="#2D3394" points="870.496,525.305 889.961,525.305 889.529,507.138 909.211,525.305 934.734,525.305 
		906.834,499.352 936.248,474.478 911.807,474.478 889.961,491.997 889.961,474.478 870.496,474.478 870.496,525.305 	"/>
</g>
</svg>
